<!-- icon666.com - MILLIONS vector ICONS FREE --><svg id="Слой_1" enable-background="new 0 0 4000 4000" viewBox="0 0 4000 4000" xmlns="http://www.w3.org/2000/svg"><g><g fill="#ff928a"><path d="m1957.453 3147.979v-212.906c-111.323-4.941-219.389-29.295-321.813-72.617-111.467-47.146-211.565-114.632-297.515-200.581-85.95-85.95-153.435-186.049-200.582-297.516-43.321-102.424-67.675-210.49-72.616-321.813h-212.906c21.944 599.68 505.754 1083.489 1105.432 1105.433z"/><path d="m852.021 1957.453h212.906c4.941-111.323 29.295-219.389 72.616-321.812 47.146-111.467 114.632-211.566 200.582-297.516s186.048-153.435 297.515-200.582c102.424-43.321 210.489-67.676 321.813-72.616v-212.906c-599.678 21.944-1083.488 505.754-1105.432 1105.432z"/><path d="m2042.547 852.021v212.906c111.323 4.941 219.388 29.295 321.812 72.616 111.467 47.146 211.565 114.632 297.516 200.582 85.949 85.95 153.435 186.048 200.582 297.516 43.322 102.423 67.676 210.489 72.617 321.812h212.906c-21.945-599.678-505.754-1083.488-1105.433-1105.432z"/><path d="m3147.979 2042.547h-212.906c-4.941 111.323-29.295 219.388-72.617 321.813-47.147 111.467-114.633 211.565-200.582 297.516-85.95 85.949-186.049 153.435-297.516 200.581-102.423 43.322-210.489 67.676-321.812 72.617v212.906c599.68-21.945 1083.489-505.754 1105.433-1105.433z"/></g><path d="m2702.023 1957.453h147.857c-21.546-435.424-371.909-785.787-807.333-807.333v147.857c0 23.498-19.049 42.547-42.547 42.547s-42.547-19.049-42.547-42.547v-147.857c-435.424 21.546-785.787 371.91-807.333 807.333h147.857c23.498 0 42.547 19.049 42.547 42.547s-19.049 42.547-42.547 42.547h-147.857c21.546 435.424 371.91 785.787 807.333 807.333v-147.857c0-23.498 19.049-42.547 42.547-42.547s42.547 19.049 42.547 42.547v147.857c435.424-21.546 785.787-371.909 807.333-807.333h-147.857c-23.498 0-42.547-19.049-42.547-42.547s19.049-42.547 42.547-42.547zm-702.023 489.289c-35.19 0-63.82-28.63-63.82-63.82s28.63-63.82 63.82-63.82 63.82 28.63 63.82 63.82-28.63 63.82-63.82 63.82zm107.932-425.738c-40.937 30.91-65.377 81.035-65.377 134.084v38.144c0 23.498-19.049 42.547-42.547 42.547s-42.547-19.049-42.547-42.547v-38.144c0-38.863 8.903-77.731 25.748-112.401 17.136-35.271 42.533-66.251 73.447-89.593 83.155-62.786 134.813-126.326 134.813-165.824 0-52.522-20.842-101.514-58.686-137.949-37.824-36.416-87.647-55.368-140.287-53.373-95.558 3.632-176.105 81.001-183.372 176.139-2.277 29.762 2.056 58.653 12.879 85.876 8.681 21.836-1.983 46.575-23.818 55.256-21.837 8.679-46.575-1.983-55.256-23.818-15.65-39.365-21.925-81.017-18.651-123.8 5.107-66.869 35.123-129.822 84.519-177.255 49.343-47.383 113.436-74.882 180.47-77.43 38.387-1.458 75.806 4.812 111.229 18.631 34.106 13.306 64.826 32.979 91.307 58.473 26.504 25.518 47.35 55.503 61.956 89.123 15.132 34.829 22.805 71.881 22.805 110.127-.001 87.95-91.704 175.65-168.632 233.734z" fill="#fff"/><path d="m3318.953 1957.453h-85.825c-5.09-151.526-37.392-298.587-96.249-437.74-30.927-73.121-69.204-143.642-113.769-209.605-44.133-65.326-94.815-126.754-150.64-182.578-55.824-55.824-117.252-106.507-182.578-150.64-65.964-44.564-136.485-82.842-209.605-113.769-139.153-58.857-286.214-91.158-437.74-96.248v-85.825c0-23.498-19.049-42.547-42.547-42.547s-42.547 19.049-42.547 42.547v85.825c-151.527 5.09-298.587 37.392-437.741 96.248-73.12 30.927-143.642 69.205-209.605 113.769-65.326 44.133-126.754 94.816-182.578 150.64s-106.507 117.252-150.64 182.578c-44.564 65.964-82.841 136.485-113.769 209.605-58.857 139.153-91.158 286.214-96.248 437.74h-85.825c-23.498 0-42.547 19.049-42.547 42.547s19.049 42.547 42.547 42.547h85.825c5.09 151.527 37.391 298.587 96.248 437.74 30.927 73.121 69.205 143.642 113.769 209.605 44.133 65.326 94.816 126.755 150.64 182.578 55.824 55.824 117.252 106.507 182.578 150.64 65.963 44.564 136.485 82.842 209.605 113.77 139.154 58.856 286.214 91.158 437.741 96.248v85.825c0 23.498 19.049 42.547 42.547 42.547s42.547-19.049 42.547-42.547v-85.825c151.526-5.09 298.587-37.392 437.74-96.248 73.12-30.928 143.642-69.205 209.605-113.77 65.326-44.133 126.754-94.815 182.578-150.64 55.824-55.823 106.507-117.252 150.64-182.578 44.564-65.964 82.842-136.484 113.769-209.605 58.857-139.153 91.159-286.213 96.249-437.74h85.825c23.498 0 42.547-19.049 42.547-42.547s-19.049-42.547-42.547-42.547zm-616.93 85.094h147.857c-21.546 435.424-371.909 785.787-807.333 807.333v-147.857c0-23.498-19.049-42.547-42.547-42.547s-42.547 19.049-42.547 42.547v147.857c-435.424-21.546-785.787-371.909-807.333-807.333h147.857c23.498 0 42.547-19.049 42.547-42.547s-19.049-42.547-42.547-42.547h-147.857c21.546-435.424 371.91-785.787 807.333-807.333v147.857c0 23.498 19.049 42.547 42.547 42.547s42.547-19.049 42.547-42.547v-147.857c435.424 21.546 785.787 371.91 807.333 807.333h-147.857c-23.498 0-42.547 19.049-42.547 42.547s19.049 42.547 42.547 42.547zm-744.57-977.62c-111.323 4.941-219.389 29.295-321.813 72.616-111.467 47.146-211.565 114.632-297.515 200.582s-153.435 186.048-200.582 297.516c-43.321 102.423-67.676 210.489-72.616 321.812h-212.906c21.943-599.679 505.753-1083.489 1105.432-1105.432zm-892.526 977.62c4.941 111.323 29.295 219.388 72.616 321.813 47.146 111.467 114.632 211.565 200.582 297.516 85.95 85.949 186.048 153.435 297.515 200.581 102.424 43.322 210.489 67.676 321.813 72.617v212.906c-599.679-21.943-1083.489-505.753-1105.432-1105.432h212.906zm977.62 892.526c111.323-4.941 219.388-29.295 321.812-72.617 111.467-47.146 211.565-114.632 297.516-200.581 85.949-85.95 153.435-186.049 200.582-297.516 43.322-102.424 67.676-210.49 72.617-321.813h212.906c-21.943 599.679-505.753 1083.489-1105.432 1105.432v-212.905zm892.526-977.62c-4.941-111.323-29.295-219.389-72.617-321.812-47.147-111.467-114.633-211.566-200.582-297.516-85.95-85.95-186.049-153.435-297.516-200.582-102.423-43.321-210.489-67.675-321.812-72.616v-212.906c599.679 21.943 1083.489 505.753 1105.432 1105.432z" fill="#1f004f"/><path d="m2191.802 1588.021c-26.48-25.495-57.2-45.167-91.307-58.473-35.423-13.819-72.842-20.088-111.229-18.631-67.034 2.548-131.126 30.046-180.47 77.43-49.396 47.433-79.412 110.386-84.519 177.255-3.274 42.783 3.001 84.436 18.651 123.8 8.681 21.835 33.418 32.498 55.256 23.818 21.835-8.681 32.499-33.42 23.818-55.256-10.823-27.224-15.157-56.114-12.879-85.876 7.266-95.137 87.813-172.506 183.372-176.139 52.64-1.996 102.463 16.957 140.287 53.373 37.844 36.435 58.686 85.426 58.686 137.949 0 39.498-51.657 103.038-134.813 165.824-30.914 23.342-56.311 54.322-73.447 89.593-16.845 34.67-25.748 73.538-25.748 112.401v38.144c0 23.498 19.049 42.547 42.547 42.547s42.547-19.049 42.547-42.547v-38.144c0-53.049 24.44-103.174 65.377-134.084 76.929-58.084 168.631-145.784 168.631-233.734 0-38.246-7.673-75.298-22.805-110.127-14.606-33.621-35.451-63.606-61.955-89.123z" fill="#1f004f"/><circle cx="2000" cy="2382.922" fill="#1f004f" r="63.82"/></g></svg>