<!-- icon666.com - MILLIONS vector ICONS FREE --><svg id="Capa_1" enable-background="new 0 0 512 512" viewBox="0 0 512 512" xmlns="http://www.w3.org/2000/svg"><path d="m493.361 201.141h-21.083c-1.592 0-3.103-.341-4.474-.948v296.655c0 4.319 3.461 7.819 7.73 7.819h14.572c4.269 0 7.73-3.5 7.73-7.819v-296.655c-1.371.606-2.883.948-4.475.948z" fill="#bd7c63"/><path d="m39.812 201.141h-21.083c-1.592 0-3.103-.341-4.474-.948v296.655c0 4.319 3.461 7.819 7.73 7.819h14.572c4.269 0 7.73-3.5 7.73-7.819v-296.655c-1.372.606-2.884.948-4.475.948z" fill="#bd7c63"/><path d="m486.137 496.848v-295.707h-13.859c-1.592 0-3.104-.341-4.474-.948v296.655c0 4.319 3.461 7.819 7.73 7.819h14.572c.65 0 1.278-.09 1.881-.243-3.359-.851-5.85-3.915-5.85-7.576z" fill="#ac6a51"/><path d="m32.588 496.848v-295.707h-13.859c-1.592 0-3.103-.341-4.474-.948v296.655c0 4.319 3.461 7.819 7.73 7.819h14.572c.65 0 1.278-.09 1.881-.243-3.359-.851-5.85-3.915-5.85-7.576z" fill="#ac6a51"/><path d="m461.095 27.313c-134.284 36.345-275.815 36.345-410.099 0v166.14c134.284 36.344 275.815 36.344 410.099 0h.001z" fill="#d9edff"/><path d="m117.995 42.314c-22.486-4.018-44.843-9.004-67-15.001v166.14c22.157 5.997 44.514 10.983 67 15z" fill="#b4dbff"/><g fill="#ff4755"><path d="m461.095 80.579v-53.266h-.001c-13.022 3.524-26.113 6.697-39.257 9.538v52.407c12.577-2.661 26.792-5.425 39.258-8.679z"/><path d="m421.837 150.585v52.407c13.145-2.841 26.236-6.013 39.257-9.538h.001v-53.811c-12.466 3.255-26.681 8.281-39.258 10.942z"/><path d="m90.252 89.258v-52.407c-13.145-2.841-26.236-6.014-39.257-9.538v53.675c11.906 3.203 26.932 5.543 39.257 8.27z"/><path d="m50.995 140.316v53.138c13.021 3.524 26.113 6.697 39.257 9.538v-52.407c-12.325-2.727-27.351-7.068-39.257-10.269z"/></g><path d="m421.837 89.258v61.327c13.145-2.841 26.236-6.013 39.257-9.538h.001v-61.327h-.001c-13.021 3.524-26.112 6.697-39.257 9.538z" fill="#d9edff"/><path d="m50.995 141.047c13.021 3.524 26.113 6.697 39.257 9.538v-61.327c-13.144-2.841-26.236-6.014-39.257-9.538z" fill="#b4dbff"/><path d="m40.812 7.667h-22.083c-6.177 0-11.184 5.007-11.184 11.183v174.603c0 6.177 5.007 11.183 11.184 11.183h22.083c6.176 0 11.183-5.007 11.183-11.183v-174.603c0-6.176-5.007-11.183-11.183-11.183z" fill="#b4dbff"/><path d="m493.362 7.667h-22.083c-6.177 0-11.184 5.007-11.184 11.183v174.603c0 6.177 5.007 11.183 11.184 11.183h22.083c6.176 0 11.183-5.007 11.183-11.183v-174.603c0-6.176-5.007-11.183-11.183-11.183z" fill="#b4dbff"/><path d="m37.503 193.454v-174.604c0-4.788 3.015-8.862 7.246-10.456-1.226-.462-2.55-.727-3.938-.727h-22.082c-6.177 0-11.184 5.007-11.184 11.183v174.603c0 6.177 5.007 11.183 11.184 11.183h22.083c1.388 0 2.711-.265 3.938-.727-4.232-1.593-7.247-5.667-7.247-10.455z" fill="#8bcaff"/><path d="m490.053 193.454v-174.604c0-4.788 3.015-8.862 7.246-10.456-1.226-.462-2.549-.727-3.937-.727h-22.083c-6.177 0-11.184 5.007-11.184 11.183v174.603c0 6.177 5.007 11.183 11.184 11.183h22.083c1.388 0 2.711-.265 3.937-.727-4.231-1.593-7.246-5.667-7.246-10.455z" fill="#8bcaff"/><path d="m493.316 0h-21.083c-10.302 0-18.684 8.382-18.684 18.684v2.678c-1 .263-8.392 2.264-20.678 5.132-52.541 12.264-106.043 18.999-159.538 20.194-4.142.093-7.424 3.524-7.331 7.665.092 4.142 3.528 7.412 7.665 7.331 47.268-1.054 94.379-6.362 140.625-15.78v150.832c-104.342 21.681-212.243 21.681-316.585 0v-46.318c0-22.016 0-83.01 0-104.514 46.245 9.417 93.357 14.725 140.626 15.78 4.137.091 7.572-3.19 7.665-7.331s-3.189-7.572-7.331-7.665c-60.547-1.352-121.119-9.803-180.217-25.326v-2.678c0-10.302-8.382-18.684-18.683-18.684h-21.083c-10.302 0-18.684 8.382-18.684 18.684v174.604c0 5.748 2.613 10.893 6.709 14.323v289.161c0 8.397 6.832 15.229 15.229 15.229h14.572c8.397 0 15.229-6.832 15.229-15.229v-289.16c1.741-1.458 3.208-3.227 4.326-5.22 5.721 1.49 11.172 2.835 15.445 3.856 60.394 14.455 122.275 21.769 184.489 21.769 67.27 0 134.223-8.522 199.934-25.625 1.117 1.992 2.585 3.761 4.325 5.219v289.161c0 8.397 6.832 15.229 15.23 15.229h14.571c8.397 0 15.229-6.832 15.229-15.229v-139.069c0-4.143-3.357-7.5-7.5-7.5s-7.5 3.357-7.5 7.5v139.067c0 .127-.103.229-.229.229h-14.571c-.127 0-.23-.103-.23-.229v-284.8h15.031v110.733c0 4.143 3.357 7.5 7.5 7.5s7.5-3.357 7.5-7.5v-115.092c4.097-3.43 6.71-8.576 6.71-14.324v-174.603c.001-10.302-8.381-18.684-18.683-18.684zm-410.609 141.067c-8.155-1.863-16.271-3.854-24.257-5.95v-45.829c8.002 2.057 16.116 4.008 24.257 5.832zm0 15.364v37.043c-8.154-1.863-16.269-3.854-24.257-5.949v-36.912c8.002 2.057 16.116 3.994 24.257 5.818zm0-113.717v37.022c-8.161-1.865-16.266-3.865-24.257-5.962v-36.891c7.652 1.969 17.342 4.282 24.257 5.831zm-67.707-24.03c0-2.032 1.652-3.684 3.684-3.684h21.083c2.031 0 3.684 1.652 3.684 3.684v174.604c0 2.058-1.691 3.683-3.684 3.683h-21.083c-2.001 0-3.684-1.632-3.684-3.683zm21.74 478.087c0 .127-.103.229-.229.229h-14.573c-.127 0-.229-.103-.229-.229v-284.801h15.031zm416.809-361.654c-7.983 2.096-16.1 4.087-24.257 5.95v-45.947c8.143-1.824 16.257-3.775 24.257-5.832zm-24.257 21.314c8.142-1.824 16.256-3.761 24.257-5.818v36.912c-7.986 2.096-16.102 4.086-24.257 5.949zm24.258-119.548v36.891c-7.989 2.097-16.095 4.097-24.258 5.962v-37.022c7.444-1.667 16.407-3.811 24.258-5.831zm18.683 160.087c-.444 0-.761-.082-.761-.082-1.706-.367-2.922-1.866-2.922-3.601 0-6.714 0-151.227 0-174.604 0-2.031 1.652-3.684 3.684-3.684h21.083c2.031 0 3.684 1.652 3.684 3.684v174.604c0 2.046-1.677 3.683-3.684 3.683z"/><path d="m134.09 104.96c3.861-2.117 12.536-2.622 21.453 3.538 2.265 1.566 5.006 1.262 7.027-1.455 1.818-2.446 3.092-6.397-.016-9.184-9.608-8.592-43.959-12.188-46.598 12.711-2.727 25.728 32.69 24.622 30.977 40.781-1.083 10.224-16.016 10.915-24.428 2.744-1.231-1.192-2.325-2.281-3.283-3.262-2.438-2.493-5.206-2.088-7.702.558-.662.699-1.202 1.486-1.625 2.357-1.066 2.203-1.203 4.474.647 7.381 8.677 13.663 47.548 19.827 50.677-9.695 2.98-28.123-32.406-27.294-30.988-40.672.277-2.608 1.562-4.542 3.859-5.802z"/><path d="m193.54 176.084c2.94.15 7.162-.876 7.327-4.115l3.199-62.578 15.945.815c3.217.164 4.659-3.326 4.807-6.214.132-2.584-.812-6.393-4.154-6.563l-46.196-2.361c-1.529-.078-2.693.538-3.489 1.847-2.422 3.98-1.557 10.706 2.836 10.93l16.054.821-3.199 62.578c-.171 3.334 3.948 4.691 6.87 4.84z"/><path d="m225.333 177.081c3.014.834 6.919.74 7.818-2.407l4.153-14.544 25.042-.004 4.157 14.543c.897 3.154 4.836 3.229 7.819 2.405 2.611-.719 5.959-2.766 5.959-5.469 0-.145-.074-.509-.219-1.094l-21.115-68.78c-1.125-3.689-5.528-4.811-9.186-4.81-3.135 0-7.912.981-9.076 4.813l-21.095 68.786c-.147.584-.219.948-.219 1.094.002 2.807 3.242 4.72 5.962 5.467zm24.432-61.679 9.518 33.57-19.027.003z"/><path d="m339.339 116.941c-.954-16.018-11.423-22.215-27.231-21.272l-21.614 1.289c-2.923.174-4.456 2.438-4.324 4.64l4.23 70.954c.352 5.911 14.548 5.147 14.191-.846l-1.698-28.491 9.169-.547 17.297 29.204c4.601 7.519 14.794-.573 13.355-5.671-.093-.323-.256-.623-.492-.902l-15.881-25.673c8.406-3.109 13.719-10.584 12.998-22.685zm-25.103 14.424-12.008.716-1.386-23.251 12.008-.716c8.511-.507 11.94 3.663 12.376 10.984.425 7.127-2.267 11.746-10.99 12.267z"/><path d="m395.808 93.854c-.276-2.374-1.749-6.182-5.186-5.782l-45.947 5.341c-3.47.404-3.993 4.481-3.721 6.818.354 3.05 2.018 6.26 5.198 5.891l15.967-1.856 7.235 62.24c.386 3.319 4.679 3.97 7.578 3.633 2.981-.346 6.914-2.084 6.543-5.274l-7.235-62.24 15.859-1.843c3.154-.368 4.053-3.969 3.709-6.928z"/></svg>